<svg xmlns="http://www.w3.org/2000/svg" viewBox="0 0 736 540" width="736" height="540"><defs><clipPath id="a"><path d="M19.542 23.963h135v101h-135z"/></clipPath><marker orient="auto" overflow="visible" id="b" stroke-miterlimit="10" viewBox="-1 -5 10 10" markerWidth="10" markerHeight="10" color="#616161"><path d="M8 0H0m4-4l4 4-4 4" fill="none" stroke="currentColor"/></marker><marker orient="auto" overflow="visible" id="c" stroke-miterlimit="10" viewBox="-9 -5 10 10" markerWidth="10" markerHeight="10" color="#616161"><path d="M-8 0h8m-4 4l-4-4 4-4" fill="none" stroke="currentColor"/></marker><clipPath id="d"><path d="M286.683 384.202h144.36v56h-144.36z"/></clipPath></defs><g fill="none"><title>Policy Administrator 4</title><path fill="#fff" d="M0 0h736v540H0z"/><title>Layer 1</title><title>path dash big</title><path d="M86.652 438.202v34.742h272.21v-32.742" stroke="#616161" stroke-linecap="round" stroke-linejoin="round" stroke-dasharray="4.0,4.0"/><title>template</title><path fill="#fff" d="M19.542 23.963h135v101h-135z"/><path stroke="#dfdfdf" stroke-linecap="round" stroke-linejoin="round" stroke-width="2" clip-path="url(#a)" d="M19.542 23.963h135v101h-135z"/><text transform="translate(23.542 79.963)" fill="#212121"><tspan font-family="Roboto" font-size="12" font-weight="400" x="11.979" y="11">Organization Policy</tspan> <tspan font-family="Roboto" font-size="12" font-weight="400" x="26.961" y="25">Administrator</tspan></text><title>Account Circle</title><path d="M87.042 46.163c-5.684 0-10.297 4.613-10.297 10.296 0 5.684 4.613 10.297 10.297 10.297S97.34 62.143 97.34 56.459c0-5.683-4.613-10.296-10.297-10.296zm0 3.089c1.71 0 3.09 1.38 3.09 3.089s-1.38 3.089-3.09 3.089a3.085 3.085 0 0 1-3.089-3.09 3.085 3.085 0 0 1 3.09-3.088zm0 14.62a7.414 7.414 0 0 1-6.178-3.315c.031-2.049 4.119-3.17 6.178-3.17 2.05 0 6.147 1.121 6.178 3.17a7.414 7.414 0 0 1-6.178 3.316z" fill="#616161"/><text transform="translate(99.542 162.95)" fill="#757575"><tspan font-family="Roboto" font-size="10" font-weight="400" x="0" y="9">Defines</tspan></text><text transform="translate(99.542 316.037)" fill="#757575"><tspan font-family="Roboto" font-size="10" font-weight="400" x="0" y="9">Uses as blueprint </tspan> <tspan font-family="Roboto" font-size="10" font-weight="400" x="0" y="21">for configuration</tspan></text><text transform="translate(205.722 223.037)" fill="#757575"><tspan font-family="Roboto" font-size="10" font-weight="400" x="0" y="9">Set on</tspan></text><text transform="translate(447.57 223.037)" fill="#757575"><tspan font-family="Roboto" font-size="10" font-weight="400" x="0" y="9">Inherited by default to</tspan></text><text transform="translate(365.542 338.95)" fill="#757575"><tspan font-family="Roboto" font-size="10" font-weight="400" x="0" y="9">Enforces constraints</tspan></text><path d="M86.542 124.963v77.1a.5.5 0 0 0 1 0v-77.1a.5.5 0 1 0-1 0zm1 85.1v-8h-1v8zm3.147-4.354l-4 4h.707l-4-4-.707.707 4 4 .353.354.354-.354 4-4z" fill="#616161"/><title>path double arrow - grey primary</title><path d="M86.652 278.937v95.365" marker-end="url(#b)" marker-start="url(#c)" stroke="#616161" stroke-linecap="round" stroke-linejoin="round"/><text transform="translate(138.722 488)" fill="#757575"><tspan font-family="Roboto" font-size="10" font-weight="400" x="0" y="9">Defines and references constraint</tspan> <tspan font-family="Roboto" font-size="10" font-weight="400" x="0" y="21">used to evaluate policy configuration</tspan></text><path fill="#fff" d="M348.309 437.471h20.8v13.8h-20.8z"/><title>Compute Engine</title><path fill="#fff" d="M286.683 384.202h144.359v56H286.683z"/><path stroke="#dfdfdf" stroke-linecap="round" stroke-linejoin="round" stroke-width="2" clip-path="url(#d)" d="M286.683 384.202h144.359v56H286.683z"/><text transform="translate(337.683 405.202)" fill="#212121"><tspan font-family="Roboto" font-size="12" font-weight="400" x="0" y="11">GCP Service(s)</tspan></text><title>Compute Engine</title><title>Fill-1</title><path d="M330.349 410.916l-5.754-10.006c-.461-.799-1.298-1.286-2.158-1.286H310.93c-.922 0-1.727.54-2.158 1.285l-5.754 9.987a2.51 2.51 0 0 0 0 2.501l5.754 10.052c.46.799 1.297 1.331 2.157 1.331h11.508c.923 0 1.728-.58 2.158-1.325l5.754-10.007a2.566 2.566 0 0 0 0-2.532" fill="#4285f4"/><title>Fill-4</title><path d="M328.697 416.32l-9.469-9.47-.679 1.47-1.477-1.477-.683 1.463-1.46-1.46-.358 1.77-1.3.223-.269 1.155-1.68.402 1.505 1.505-1.49.664 1.49 1.49-1.499.64 10.085 10.085h1.023c.923 0 1.728-.58 2.159-1.325z" fill="#000" fill-opacity=".07"/><title>Fill-7</title><path d="M317.958 410.692h-2.495a.266.266 0 0 0-.266.266v2.495c0 .146.12.265.266.266h2.495c.146 0 .265-.12.266-.266v-2.495a.266.266 0 0 0-.266-.266" fill="#fff"/><title>Fill-9</title><path d="M319.798 415.293h-6.176v-6.176h6.177zm2.11-4.802a.24.24 0 0 0 .239-.239v-.388a.24.24 0 0 0-.238-.238h-1.214v-1.135a.267.267 0 0 0-.266-.266h-1.14l.001-1.218a.24.24 0 0 0-.238-.238h-.389a.24.24 0 0 0-.238.238v1.218h-1.282v-1.218a.24.24 0 0 0-.238-.239h-.39a.24.24 0 0 0-.238.239v1.218h-1.28v-1.218a.24.24 0 0 0-.24-.239h-.388a.24.24 0 0 0-.238.239v1.218h-1.14a.266.266 0 0 0-.265.266v1.134h-1.214a.24.24 0 0 0-.238.239v.389a.24.24 0 0 0 .238.238h1.214v1.282h-1.214a.24.24 0 0 0-.238.238v.388c0 .132.107.238.238.238h1.214v1.283h-1.214a.24.24 0 0 0-.238.238v.388a.24.24 0 0 0 .238.239h1.214v1.135c.001.146.12.265.266.265h1.139v1.218a.24.24 0 0 0 .238.239h.389a.239.239 0 0 0 .238-.239v-1.218h1.281v1.218a.24.24 0 0 0 .24.239h.388a.239.239 0 0 0 .238-.239v-1.218h1.282v1.218a.24.24 0 0 0 .238.239h.388a.24.24 0 0 0 .239-.239v-1.218h1.139a.267.267 0 0 0 .266-.265v-1.135h1.214a.239.239 0 0 0 .238-.239v-.388a.239.239 0 0 0-.238-.238h-1.214v-1.283h1.214a.239.239 0 0 0 .238-.238v-.388a.24.24 0 0 0-.238-.238h-1.214v-1.282z" fill="#fff"/><title>Stroke-22</title><path stroke="#dfdfdf" stroke-linejoin="round" stroke-width="1.601" d="M297.78 448.071h122.165"/><title>Stroke-21</title><path stroke="#dfdfdf" stroke-linejoin="round" stroke-width="1.732" d="M292.78 443.404h132.165"/><path stroke="#dfdfdf" stroke-linecap="round" stroke-linejoin="round" d="M19.542 215.037h134.22v54H19.542z"/><text transform="translate(60.542 235.037)" fill="#212121"><tspan font-family="Roboto" font-size="12" font-weight="400" x="0" y="11">Org Policy</tspan></text><title>Description</title><path d="M46.902 233.236h-7.2c-.99 0-1.79.81-1.79 1.8l-.01 14.4c0 .99.801 1.8 1.791 1.8h10.81c.99 0 1.8-.81 1.8-1.8v-10.8l-5.4-5.4zm1.8 14.4h-7.2v-1.8h7.2v1.8zm0-3.6h-7.2v-1.8h7.2v1.8zm-2.7-4.5v-4.95l4.95 4.95h-4.95z" fill="#757575"/><title>task queues</title><path stroke="#dfdfdf" stroke-linecap="round" stroke-linejoin="round" d="M19.542 384.202h134.22v54H19.542z"/><text transform="translate(60.542 404.202)" fill="#212121"><tspan font-family="Roboto" font-size="12" font-weight="400" x="0" y="11">Constraint</tspan></text><path stroke="#000" stroke-linecap="round" stroke-linejoin="round" d="M36.542 417.202h3v3h-3zm0-5h3v3h-3zm0-5h3v3h-3zm0-5h3v3h-3zm5 15h11v3h-11zm0-5h11v3h-11zm0-5h11v3h-11zm0-5h11v3h-11z"/><g><path stroke="#dfdfdf" stroke-linecap="round" stroke-linejoin="round" d="M286.683 215.037h144.359v54H286.683z"/><text transform="translate(327.683 228.037)" fill="#212121"><tspan font-family="Roboto" font-size="12" font-weight="400" x="0" y="11">Resource</tspan> <tspan font-family="Roboto" font-size="12" font-weight="400" x="0" y="25">Hierarchy Node</tspan></text></g><g><title>Folder</title><path d="M308.276 234.612h-5.569a1.854 1.854 0 0 0-1.847 1.856l-.01 11.138c0 1.021.836 1.857 1.857 1.857h14.851a1.862 1.862 0 0 0 1.857-1.857v-9.282a1.862 1.862 0 0 0-1.857-1.856h-7.425l-1.857-1.856z" fill="#616161"/></g><g><path stroke="#dfdfdf" stroke-linecap="round" stroke-linejoin="round" d="M561.099 211.963h155.359v59H561.099z"/><text transform="translate(602.099 220.463)" fill="#212121"><tspan font-family="Roboto" font-size="12" font-weight="400" x="0" y="11">Descendant</tspan> <tspan font-family="Roboto" font-size="12" font-weight="400" x="0" y="25">Resource Hierarchy</tspan> <tspan font-family="Roboto" font-size="12" font-weight="400" x="0" y="39">Nodes</tspan></text></g><g><title>Folder</title><path d="M582.763 235.81h-5.569a1.854 1.854 0 0 0-1.847 1.857l-.01 11.138c0 1.021.836 1.857 1.857 1.857h14.851a1.862 1.862 0 0 0 1.856-1.857v-9.282a1.862 1.862 0 0 0-1.856-1.856h-7.425l-1.857-1.856z" fill="#616161"/></g><g><title>path arrow - grey primary</title><path d="M153.762 242.037h123.021" marker-end="url(#b)" stroke="#616161" stroke-linecap="round" stroke-linejoin="round"/></g><g><title>path arrow - grey primary</title><path d="M431.042 241.902l67.778-.152 52.379-.117" marker-end="url(#b)" stroke="#616161" stroke-linecap="round" stroke-linejoin="round"/></g><g><title>path arrow - grey primary</title><path d="M358.862 384.202V278.937" marker-end="url(#b)" stroke="#616161" stroke-linecap="round" stroke-linejoin="round"/></g><g><title>path arrow - grey primary</title><path d="M358.862 325.322h280.306v-43.078l-.018-1.382" marker-end="url(#b)" stroke="#616161" stroke-linecap="round" stroke-linejoin="round"/></g></g></svg>